<svg xmlns="http://www.w3.org/2000/svg" xmlns:xlink="http://www.w3.org/1999/xlink" fill="none" version="1.1" width="12" height="14.666748046875" viewBox="0 0 12 14.666748046875"><g><g><path d="M11.1667,14.6667L0.833333,14.6667C0.37331,14.6662,0.000515938,14.2934,0,13.8333L0,0.833336C0.000516653,0.373313,0.37331,0.000519812,0.833333,0.00000315905L8.12625,0.00000315905C8.34739,-0.00060457,8.55957,0.0872791,8.71552,0.244066L11.7559,3.28448C11.9127,3.44043,12.0006,3.65262,12,3.87375L12,13.8333C11.9995,14.2934,11.6267,14.6662,11.1667,14.6667ZM0.833333,0.66667C0.741286,0.66667,0.666667,0.741289,0.666667,0.833336L0.666667,13.8333C0.666667,13.9254,0.741286,14,0.833333,14L11.1667,14C11.2587,14,11.3333,13.9254,11.3333,13.8333L11.3333,4L8.83333,4C8.37331,3.99949,8.00052,3.62669,8,3.16667L8,0.66667L0.833333,0.66667ZM8.66667,1.13802L8.66667,3.16667C8.66667,3.25872,8.74129,3.33334,8.83333,3.33334L10.862,3.33334L8.66667,1.13802ZM9,11.3333L3,11.3333C2.81591,11.3333,2.66667,11.1841,2.66667,11C2.66667,10.8159,2.81591,10.6667,3,10.6667L9,10.6667C9.1841,10.6667,9.33333,10.8159,9.33333,11C9.33333,11.1841,9.1841,11.3333,9,11.3333ZM9,8L3,8C2.81591,8,2.66667,7.85076,2.66667,7.66667C2.66667,7.48257,2.81591,7.33334,3,7.33334L9,7.33334C9.1841,7.33334,9.33333,7.48257,9.33333,7.66667C9.33333,7.85076,9.1841,8,9,8ZM5.66667,4L3,4C2.81591,4,2.66667,3.85076,2.66667,3.66667C2.66667,3.48257,2.81591,3.33334,3,3.33334L5.66667,3.33334C5.85076,3.33334,6,3.48257,6,3.66667C6,3.85076,5.85076,4,5.66667,4Z" fill="#5C5C66" fill-opacity="1"/></g></g></svg>